<?xml version="1.0" encoding="iso-8859-1"?>
<!-- Generator: Adobe Illustrator 19.0.0, SVG Export Plug-In . SVG Version: 6.00 Build 0)  -->
<svg version="1.1" id="Capa_1" xmlns="http://www.w3.org/2000/svg" xmlns:xlink="http://www.w3.org/1999/xlink" x="0px" y="0px"
	 viewBox="0 0 511.776 511.776" style="enable-background:new 0 0 511.776 511.776;" xml:space="preserve">
<g>
	<g>
		<path d="M371.163,185.437l-68.843-68.843c-12.587-12.587-34.496-12.587-47.083,0c-2.987,2.987-5.269,6.4-6.891,10.048
			c-12.629-11.989-34.048-11.755-46.443,0.619c-3.904,3.883-6.613,8.512-8.171,13.419c-11.648-4.032-25.515-1.045-34.496,7.915
			c-9.301,9.301-11.947,22.784-7.893,34.475c-5.013,1.579-9.621,4.352-13.44,8.192c-12.971,12.971-12.971,34.091,0,47.083
			l81.557,81.557h-16.917c-29.419,0-53.333,23.936-53.333,53.333c0,5.888,4.779,10.667,10.667,10.667h129.067
			c64.107,0,116.267-52.16,116.267-116.267C405.211,236.573,393.115,207.389,371.163,185.437z M288.944,362.568H172.379
			c4.395-12.416,16.256-21.333,30.165-21.333h42.667c4.309,0,8.213-2.603,9.856-6.592c1.664-3.989,0.747-8.576-2.304-11.627
			l-99.776-99.755c-4.672-4.672-4.672-12.245,0-16.917c4.544-4.523,12.373-4.523,16.917,0l67.776,67.755
			c4.16,4.16,10.923,4.16,15.083,0c4.16-4.16,4.16-10.923,0-15.083l-78.443-78.421c-4.672-4.672-4.672-12.245,0-16.917
			c4.544-4.523,12.373-4.523,16.917,0l10.475,10.475c0.064,0.085,0.128,0.128,0.192,0.192l57.109,57.109
			c4.16,4.16,10.923,4.16,15.083,0c4.16-4.16,4.16-10.923,0-15.083l-57.216-57.216c-4.565-4.672-4.523-12.181,0.107-16.811
			c4.544-4.523,12.373-4.523,16.917,0l21.035,21.035c0.107,0.107,0.192,0.213,0.299,0.299l35.776,35.776
			c4.16,4.16,10.923,4.16,15.083,0c4.16-4.16,4.16-10.923,0-15.083l-35.947-35.947c-4.501-4.693-4.437-12.139,0.171-16.747
			c4.544-4.523,12.373-4.523,16.917,0l68.821,68.843c17.941,17.92,27.819,41.749,27.819,67.115
			C383.877,319.987,341.296,362.568,288.944,362.568z"/>
	</g>
</g>
<g>
	<g>
		<path d="M436.912,74.867c-99.84-99.819-262.208-99.819-362.048,0c-99.819,99.819-99.819,262.229,0,362.048
			c49.899,49.92,115.456,74.859,181.013,74.859s131.115-24.939,181.035-74.859C536.731,337.096,536.731,174.685,436.912,74.867z
			 M421.829,421.832c-91.477,91.499-240.363,91.499-331.883,0c-91.499-91.499-91.499-240.384,0-331.883
			c45.739-45.739,105.835-68.608,165.931-68.608s120.192,22.891,165.952,68.608C513.328,181.448,513.328,330.333,421.829,421.832z"
			/>
	</g>
</g>
<g>
	<g>
		<path d="M436.891,74.888c-4.16-4.16-10.923-4.16-15.083,0L74.843,421.853c-4.16,4.16-4.16,10.923,0,15.083
			c2.091,2.069,4.821,3.115,7.552,3.115s5.461-1.045,7.552-3.136L436.891,89.971C441.051,85.811,441.051,79.048,436.891,74.888z"/>
	</g>
</g>
<g>
</g>
<g>
</g>
<g>
</g>
<g>
</g>
<g>
</g>
<g>
</g>
<g>
</g>
<g>
</g>
<g>
</g>
<g>
</g>
<g>
</g>
<g>
</g>
<g>
</g>
<g>
</g>
<g>
</g>
</svg>
