<?xml version="1.0"?>
<svg xmlns="http://www.w3.org/2000/svg" xmlns:xlink="http://www.w3.org/1999/xlink" class="" id="Capa_1" style="enable-background:new 0 0 511.776 511.776;" viewBox="0 0 511.776 511.776" x="0px" y="0px" width="512px" height="512px" version="1.1" xml:space="preserve"><g><g>
	<g>
		<path class="active-path" d="M 371.163 185.437 l -68.843 -68.843 c -12.587 -12.587 -34.496 -12.587 -47.083 0 c -2.987 2.987 -5.269 6.4 -6.891 10.048 c -12.629 -11.989 -34.048 -11.755 -46.443 0.619 c -3.904 3.883 -6.613 8.512 -8.171 13.419 c -11.648 -4.032 -25.515 -1.045 -34.496 7.915 c -9.301 9.301 -11.947 22.784 -7.893 34.475 c -5.013 1.579 -9.621 4.352 -13.44 8.192 c -12.971 12.971 -12.971 34.091 0 47.083 l 81.557 81.557 h -16.917 c -29.419 0 -53.333 23.936 -53.333 53.333 c 0 5.888 4.779 10.667 10.667 10.667 h 129.067 c 64.107 0 116.267 -52.16 116.267 -116.267 C 405.211 236.573 393.115 207.389 371.163 185.437 Z M 288.944 362.568 H 172.379 c 4.395 -12.416 16.256 -21.333 30.165 -21.333 h 42.667 c 4.309 0 8.213 -2.603 9.856 -6.592 c 1.664 -3.989 0.747 -8.576 -2.304 -11.627 l -99.776 -99.755 c -4.672 -4.672 -4.672 -12.245 0 -16.917 c 4.544 -4.523 12.373 -4.523 16.917 0 l 67.776 67.755 c 4.16 4.16 10.923 4.16 15.083 0 c 4.16 -4.16 4.16 -10.923 0 -15.083 l -78.443 -78.421 c -4.672 -4.672 -4.672 -12.245 0 -16.917 c 4.544 -4.523 12.373 -4.523 16.917 0 l 10.475 10.475 c 0.064 0.085 0.128 0.128 0.192 0.192 l 57.109 57.109 c 4.16 4.16 10.923 4.16 15.083 0 c 4.16 -4.16 4.16 -10.923 0 -15.083 l -57.216 -57.216 c -4.565 -4.672 -4.523 -12.181 0.107 -16.811 c 4.544 -4.523 12.373 -4.523 16.917 0 l 21.035 21.035 c 0.107 0.107 0.192 0.213 0.299 0.299 l 35.776 35.776 c 4.16 4.16 10.923 4.16 15.083 0 c 4.16 -4.16 4.16 -10.923 0 -15.083 l -35.947 -35.947 c -4.501 -4.693 -4.437 -12.139 0.171 -16.747 c 4.544 -4.523 12.373 -4.523 16.917 0 l 68.821 68.843 c 17.941 17.92 27.819 41.749 27.819 67.115 C 383.877 319.987 341.296 362.568 288.944 362.568 Z" data-original="#000000" data-old_color="#000000" fill="#FFFFFF"/>
	</g>
</g><g>
	<g>
		<path class="active-path" d="M 436.912 74.867 c -99.84 -99.819 -262.208 -99.819 -362.048 0 c -99.819 99.819 -99.819 262.229 0 362.048 c 49.899 49.92 115.456 74.859 181.013 74.859 s 131.115 -24.939 181.035 -74.859 C 536.731 337.096 536.731 174.685 436.912 74.867 Z M 421.829 421.832 c -91.477 91.499 -240.363 91.499 -331.883 0 c -91.499 -91.499 -91.499 -240.384 0 -331.883 c 45.739 -45.739 105.835 -68.608 165.931 -68.608 s 120.192 22.891 165.952 68.608 C 513.328 181.448 513.328 330.333 421.829 421.832 Z" data-original="#000000" data-old_color="#000000" fill="#FFFFFF"/>
	</g>
</g><g>
	<g>
		<path class="active-path" d="M 436.891 74.888 c -4.16 -4.16 -10.923 -4.16 -15.083 0 L 74.843 421.853 c -4.16 4.16 -4.16 10.923 0 15.083 c 2.091 2.069 4.821 3.115 7.552 3.115 s 5.461 -1.045 7.552 -3.136 L 436.891 89.971 C 441.051 85.811 441.051 79.048 436.891 74.888 Z" data-original="#000000" data-old_color="#000000" fill="#FFFFFF"/>
	</g>
</g></g> </svg>
